Wrong Side Of Town (DivX)(Nl subs)(2010) TBS

Verenigde Staten
Actie
88 minuten

geregisseerd door David DeFalco
met Rob Van Dam, Ja Rule en Omarion

Bobby Kalinowski (Van Dam) is een voormalig marinier die geniet van een vreedzaam leven als landschapsarchitect in Los Angeles, met zijn familie. De familie wordt uitgenodigd door hun nieuwe buren voor een nachtje naar een beroemde club in hun stad. Al snel verandert de avond in een complete chaos wanneer de familie Kalinowski een conflict krijgt met Ethan Bordas, één van de clubeigenaars. Hierbij vermoordt Bobby per ongeluk Ethan wanneer hij zijn vrouw verdedigt. Ethan's broer Seth is nu uit op wraak.

Storyline

Ex-Navy Seal Bobby Kalinowski lives a quiet, peaceful life as a landscape architect in an LA suburb with his wife Dawn and 16 year old daughter Brianna. 
Tonight they are invited out for an evening on the town by new neighbors clay and Elise Freeman to a happening club downtown. Little did they know that this would be the start of a life or death ordeal for the group. While at the club, Dawn is accosted by one of the club owners, Ethan Bordas. When Bobby 
intervenes and accidentally kills Ethan defending his wife, his enraged older brother, Seth, puts a one hundred thousand dollar bounty on his head. Now Bobby 
must escape LA while being pursued by every criminal, wise guy and thug in the city. Bobby decides to separate from his wife and neighbors and revert to his 
Navy Seal training to survive. 


Info:

Categorie: Beeld
Formaat: DivX
Bron: Retail
Taal: Nl subs(ingebakken)
Cover: yes

General

Format                           : AVI
Format/Info                      : Audio Video Interleave
File size                        : 1.12 GiB
Duration                         : 1h 25mn
Overall bit rate                 : 1 887 Kbps
Writing application              : FairUse Wizard 

Video
ID                               : 0
Format                           : MPEG-4 Visual
Format profile                   : Advanced Simple@L5
Format settings, BVOP            : Yes
Format settings, QPel            : No
Format settings, GMC             : No warppoints
Format settings, Matrix          : Default (MPEG)
Muxing mode                      : Packed bitstream
Codec ID                         : XVID
Codec ID/Hint                    : XviD
Duration                         : 1h 25mn
Bit rate                         : 1 750 Kbps
Width                            : 688 pixels
Height                           : 384 pixels
Display aspect ratio             : 16:9
Frame rate                       : 23.976 fps
Color space                      : YUV
Chroma subsampling               : 4:2:0
Bit depth                        : 8 bits
Scan type                        : Progressive
Bits/(Pixel*Frame)               : 0.276
Stream size                      : 1.04 GiB (93%)
Writing library                  : XviD 1.2.0.dev47 (UTC 2006-11-01)

Audio
ID                               : 1
Format                           : MPEG Audio
Format version                   : Version 1
Format profile                   : Layer 3
Mode                             : Joint stereo
Mode extension                   : MS Stereo
Codec ID                         : 55
Codec ID/Hint                    : MP3
Duration                         : 1h 25mn
Bit rate mode                    : Constant
Bit rate                         : 128 Kbps
Channel(s)                       : 2 channels
Sampling rate                    : 48.0 KHz
Stream size                      : 77.9 MiB (7%)
Alignment                        : Aligned on interleaves
Interleave, duration             : 42 ms (1.00 video frame)
Interleave, preload duration     : 504 ms
Writing library                  : LAME3.97 
Encoding settings                : -m j -V 4 -q 2 -lowpass 17 -b 128

 
http://www.moviemeter.nl/film/61742 
http://www.imdb.com/title/tt1431191